<?xml version="1.0" encoding="utf-8"?>
<!-- Generator: Adobe Illustrator 21.1.0, SVG Export Plug-In . SVG Version: 6.00 Build 0)  -->
<svg version="1.1" id="Capa_1" xmlns="http://www.w3.org/2000/svg" xmlns:xlink="http://www.w3.org/1999/xlink" x="0px" y="0px"
	 viewBox="0 0 743.8 244.8" style="enable-background:new 0 0 743.8 244.8;" xml:space="preserve">
<style type="text/css">
	.st0{fill:#ECEFF1;}
</style>
<g>
	<g>
		<rect x="71.1" y="88.5" class="st0" width="51.5" height="68.3"/>
		<rect x="71.1" y="88.5" class="st0" width="51.5" height="68.3"/>
		<rect x="71.1" y="0" class="st0" width="51.5" height="68.3"/>
		<rect x="71.1" y="176.5" class="st0" width="51.5" height="68.3"/>
		<rect x="142.5" y="122.4" class="st0" width="51.5" height="122.4"/>
		<rect x="-0.2" y="0" class="st0" width="51.5" height="122.6"/>
	</g>
	<g>
		<path class="st0" d="M256.4,199.4v-154H282v128.3h77v25.7H256.4z"/>
		<polygon class="st0" points="718.3,71.1 718.3,45.4 641.4,45.4 641.4,199.4 667.1,199.4 667.1,148.1 718.3,148.1 718.3,199.4 
			744,199.4 744,71.1 718.4,71.1 718.4,122.4 667.1,122.4 667.1,71.1 		"/>
		<g>
			<rect x="590" y="71.1" class="st0" width="25.7" height="25.7"/>
			<polygon class="st0" points="590,173.5 538.7,173.5 538.7,71.2 589.8,71.2 589.8,71.1 589.9,71.1 589.9,45.5 589.8,45.5 
				589.8,45.2 513,45.2 513,71.2 513,71.2 513,173.5 513.1,173.5 513.1,199.5 615.6,199.5 615.6,173.7 615.7,173.7 615.7,148.1 
				590,148.1 			"/>
		</g>
		<g>
			<polygon class="st0" points="461.6,45.3 461.6,173.7 410.4,173.7 410.4,199.4 461.6,199.4 461.6,199.6 487.3,199.6 487.3,45.3 
							"/>
			<polygon class="st0" points="384.7,45.4 384.7,160.9 384.7,160.9 384.7,199.5 410.3,199.5 410.3,173.7 410.4,173.7 410.4,45.4 
							"/>
		</g>
	</g>
</g>
</svg>
